<svg id="mermaid-732aa2740d8e89da" width="100%" xmlns="http://www.w3.org/2000/svg" xmlns:xlink="http://www.w3.org/1999/xlink" class="flowchart" style="max-width: 2185.24560546875px;" viewBox="0 0 2185.24560546875 165" role="graphics-document document" aria-roledescription="flowchart-v2"><style>#m732aa2740d8e89da-0{font-family:arial,sans-serif;font-size:16px;fill:#000000;}@keyframes edge-animation-frame{from{stroke-dashoffset:0;}}@keyframes dash{to{stroke-dashoffset:0;}}#m732aa2740d8e89da-0 .edge-animation-slow{stroke-dasharray:9,5!important;stroke-dashoffset:900;animation:dash 50s linear infinite;stroke-linecap:round;}#m732aa2740d8e89da-0 .edge-animation-fast{stroke-dasharray:9,5!important;stroke-dashoffset:900;animation:dash 20s linear infinite;stroke-linecap:round;}#m732aa2740d8e89da-0 .error-icon{fill:#552222;}#m732aa2740d8e89da-0 .error-text{fill:#552222;stroke:#552222;}#m732aa2740d8e89da-0 .edge-thickness-normal{stroke-width:1px;}#m732aa2740d8e89da-0 .edge-thickness-thick{stroke-width:3.5px;}#m732aa2740d8e89da-0 .edge-pattern-solid{stroke-dasharray:0;}#m732aa2740d8e89da-0 .edge-thickness-invisible{stroke-width:0;fill:none;}#m732aa2740d8e89da-0 .edge-pattern-dashed{stroke-dasharray:3;}#m732aa2740d8e89da-0 .edge-pattern-dotted{stroke-dasharray:2;}#m732aa2740d8e89da-0 .marker{fill:#666;stroke:#666;}#m732aa2740d8e89da-0 .marker.cross{stroke:#666;}#m732aa2740d8e89da-0 svg{font-family:arial,sans-serif;font-size:16px;}#m732aa2740d8e89da-0 p{margin:0;}#m732aa2740d8e89da-0 .label{font-family:arial,sans-serif;color:#000000;}#m732aa2740d8e89da-0 .cluster-label text{fill:#333;}#m732aa2740d8e89da-0 .cluster-label span{color:#333;}#m732aa2740d8e89da-0 .cluster-label span p{background-color:transparent;}#m732aa2740d8e89da-0 .label text,#m732aa2740d8e89da-0 span{fill:#000000;color:#000000;}#m732aa2740d8e89da-0 .node rect,#m732aa2740d8e89da-0 .node circle,#m732aa2740d8e89da-0 .node ellipse,#m732aa2740d8e89da-0 .node polygon,#m732aa2740d8e89da-0 .node path{fill:#eee;stroke:#999;stroke-width:1px;}#m732aa2740d8e89da-0 .rough-node .label text,#m732aa2740d8e89da-0 .node .label text,#m732aa2740d8e89da-0 .image-shape .label,#m732aa2740d8e89da-0 .icon-shape .label{text-anchor:middle;}#m732aa2740d8e89da-0 .node .katex path{fill:#000;stroke:#000;stroke-width:1px;}#m732aa2740d8e89da-0 .rough-node .label,#m732aa2740d8e89da-0 .node .label,#m732aa2740d8e89da-0 .image-shape .label,#m732aa2740d8e89da-0 .icon-shape .label{text-align:center;}#m732aa2740d8e89da-0 .node.clickable{cursor:pointer;}#m732aa2740d8e89da-0 .root .anchor path{fill:#666!important;stroke-width:0;stroke:#666;}#m732aa2740d8e89da-0 .arrowheadPath{fill:#333333;}#m732aa2740d8e89da-0 .edgePath .path{stroke:#666;stroke-width:1px;}#m732aa2740d8e89da-0 .flowchart-link{stroke:#666;fill:none;}#m732aa2740d8e89da-0 .edgeLabel{background-color:white;text-align:center;}#m732aa2740d8e89da-0 .edgeLabel p{background-color:white;}#m732aa2740d8e89da-0 .edgeLabel rect{opacity:0.5;background-color:white;fill:white;}#m732aa2740d8e89da-0 .labelBkg{background-color:rgba(255, 255, 255, 0.5);}#m732aa2740d8e89da-0 .cluster rect{fill:hsl(0, 0%, 98.9215686275%);stroke:#707070;stroke-width:1px;}#m732aa2740d8e89da-0 .cluster text{fill:#333;}#m732aa2740d8e89da-0 .cluster span{color:#333;}#m732aa2740d8e89da-0 div.mermaidTooltip{position:absolute;text-align:center;max-width:200px;padding:2px;font-family:arial,sans-serif;font-size:12px;background:hsl(-160, 0%, 93.3333333333%);border:1px solid #707070;border-radius:2px;pointer-events:none;z-index:100;}#m732aa2740d8e89da-0 .flowchartTitleText{text-anchor:middle;font-size:18px;fill:#000000;}#m732aa2740d8e89da-0 rect.text{fill:none;stroke-width:0;}#m732aa2740d8e89da-0 .icon-shape,#m732aa2740d8e89da-0 .image-shape{background-color:white;text-align:center;}#m732aa2740d8e89da-0 .icon-shape p,#m732aa2740d8e89da-0 .image-shape p{background-color:white;padding:2px;}#m732aa2740d8e89da-0 .icon-shape .label rect,#m732aa2740d8e89da-0 .image-shape .label rect{opacity:0.5;background-color:white;fill:white;}#m732aa2740d8e89da-0 .label-icon{display:inline-block;height:1em;overflow:visible;vertical-align:-0.125em;}#m732aa2740d8e89da-0 .node .label-icon path{fill:currentColor;stroke:revert;stroke-width:revert;}#m732aa2740d8e89da-0 .node .neo-node{stroke:#999;}#m732aa2740d8e89da-0 [data-look="neo"].node rect,#m732aa2740d8e89da-0 [data-look="neo"].cluster rect,#m732aa2740d8e89da-0 [data-look="neo"].node polygon{stroke:url(#m732aa2740d8e89da-0-gradient);filter:drop-shadow( 1px 2px 2px rgba(185,185,185,1));}#m732aa2740d8e89da-0 [data-look="neo"].node path{stroke:url(#m732aa2740d8e89da-0-gradient);stroke-width:1px;}#m732aa2740d8e89da-0 [data-look="neo"].node .outer-path{filter:drop-shadow( 1px 2px 2px rgba(185,185,185,1));}#m732aa2740d8e89da-0 [data-look="neo"].node .neo-line path{stroke:#999;filter:none;}#m732aa2740d8e89da-0 [data-look="neo"].node circle{stroke:url(#m732aa2740d8e89da-0-gradient);filter:drop-shadow( 1px 2px 2px rgba(185,185,185,1));}#m732aa2740d8e89da-0 [data-look="neo"].node circle .state-start{fill:#000000;}#m732aa2740d8e89da-0 [data-look="neo"].icon-shape .icon{fill:url(#m732aa2740d8e89da-0-gradient);filter:drop-shadow( 1px 2px 2px rgba(185,185,185,1));}#m732aa2740d8e89da-0 [data-look="neo"].icon-shape .icon-neo path{stroke:url(#m732aa2740d8e89da-0-gradient);filter:drop-shadow( 1px 2px 2px rgba(185,185,185,1));}#m732aa2740d8e89da-0 :root{--mermaid-font-family:arial,sans-serif;}</style><g><marker id="m732aa2740d8e89da-0_flowchart-v2-pointEnd" class="marker flowchart-v2" viewBox="0 0 10 10" refX="5" refY="5" markerUnits="userSpaceOnUse" markerWidth="8" markerHeight="8" orient="auto"><path d="M 0 0 L 10 5 L 0 10 z" class="arrowMarkerPath" style="stroke-width: 1; stroke-dasharray: 1, 0;"/></marker><marker id="m732aa2740d8e89da-0_flowchart-v2-pointStart" class="marker flowchart-v2" viewBox="0 0 10 10" refX="4.5" refY="5" markerUnits="userSpaceOnUse" markerWidth="8" markerHeight="8" orient="auto"><path d="M 0 5 L 10 10 L 10 0 z" class="arrowMarkerPath" style="stroke-width: 1; stroke-dasharray: 1, 0;"/></marker><marker id="m732aa2740d8e89da-0_flowchart-v2-pointEnd-margin" class="marker flowchart-v2" viewBox="0 0 11.5 14" refX="11.5" refY="7" markerUnits="userSpaceOnUse" markerWidth="10.5" markerHeight="14" orient="auto"><path d="M 0 0 L 11.5 7 L 0 14 z" class="arrowMarkerPath" style="stroke-width: 0; stroke-dasharray: 1, 0;"/></marker><marker id="m732aa2740d8e89da-0_flowchart-v2-pointStart-margin" class="marker flowchart-v2" viewBox="0 0 11.5 14" refX="1" refY="7" markerUnits="userSpaceOnUse" markerWidth="11.5" markerHeight="14" orient="auto"><polygon points="0,7 11.5,14 11.5,0" class="arrowMarkerPath" style="stroke-width: 0; stroke-dasharray: 1, 0;"/></marker><marker id="m732aa2740d8e89da-0_flowchart-v2-circleEnd" class="marker flowchart-v2" viewBox="0 0 10 10" refX="11" refY="5" markerUnits="userSpaceOnUse" markerWidth="11" markerHeight="11" orient="auto"><circle cx="5" cy="5" r="5" class="arrowMarkerPath" style="stroke-width: 1; stroke-dasharray: 1, 0;"/></marker><marker id="m732aa2740d8e89da-0_flowchart-v2-circleStart" class="marker flowchart-v2" viewBox="0 0 10 10" refX="-1" refY="5" markerUnits="userSpaceOnUse" markerWidth="11" markerHeight="11" orient="auto"><circle cx="5" cy="5" r="5" class="arrowMarkerPath" style="stroke-width: 1; stroke-dasharray: 1, 0;"/></marker><marker id="m732aa2740d8e89da-0_flowchart-v2-circleEnd-margin" class="marker flowchart-v2" viewBox="0 0 10 10" refY="5" refX="12.25" markerUnits="userSpaceOnUse" markerWidth="14" markerHeight="14" orient="auto"><circle cx="5" cy="5" r="5" class="arrowMarkerPath" style="stroke-width: 0; stroke-dasharray: 1, 0;"/></marker><marker id="m732aa2740d8e89da-0_flowchart-v2-circleStart-margin" class="marker flowchart-v2" viewBox="0 0 10 10" refX="-2" refY="5" markerUnits="userSpaceOnUse" markerWidth="14" markerHeight="14" orient="auto"><circle cx="5" cy="5" r="5" class="arrowMarkerPath" style="stroke-width: 0; stroke-dasharray: 1, 0;"/></marker><marker id="m732aa2740d8e89da-0_flowchart-v2-crossEnd" class="marker cross flowchart-v2" viewBox="0 0 11 11" refX="12" refY="5.2" markerUnits="userSpaceOnUse" markerWidth="11" markerHeight="11" orient="auto"><path d="M 1,1 l 9,9 M 10,1 l -9,9" class="arrowMarkerPath" style="stroke-width: 2; stroke-dasharray: 1, 0;"/></marker><marker id="m732aa2740d8e89da-0_flowchart-v2-crossStart" class="marker cross flowchart-v2" viewBox="0 0 11 11" refX="-1" refY="5.2" markerUnits="userSpaceOnUse" markerWidth="11" markerHeight="11" orient="auto"><path d="M 1,1 l 9,9 M 10,1 l -9,9" class="arrowMarkerPath" style="stroke-width: 2; stroke-dasharray: 1, 0;"/></marker><marker id="m732aa2740d8e89da-0_flowchart-v2-crossEnd-margin" class="marker cross flowchart-v2" viewBox="0 0 15 15" refX="17.7" refY="7.5" markerUnits="userSpaceOnUse" markerWidth="12" markerHeight="12" orient="auto"><path d="M 1,1 L 14,14 M 1,14 L 14,1" class="arrowMarkerPath" style="stroke-width: 2.5;"/></marker><marker id="m732aa2740d8e89da-0_flowchart-v2-crossStart-margin" class="marker cross flowchart-v2" viewBox="0 0 15 15" refX="-3.5" refY="7.5" markerUnits="userSpaceOnUse" markerWidth="12" markerHeight="12" orient="auto"><path d="M 1,1 L 14,14 M 1,14 L 14,1" class="arrowMarkerPath" style="stroke-width: 2.5; stroke-dasharray: 1, 0;"/></marker><g class="root"><g class="clusters"/><g class="edgePaths"><path d="M167.609,69.257L171.776,67.548C175.943,65.838,184.276,62.419,191.943,60.71C199.609,59,206.609,59,210.109,59L213.609,59" id="m732aa2740d8e89da-0-L_IDEA_DESIGN_0" class="edge-thickness-normal edge-pattern-solid edge-thickness-normal edge-pattern-solid flowchart-link" style=";" data-edge="true" data-et="edge" data-id="L_IDEA_DESIGN_0" data-points="W3sieCI6MTY3LjYwOTM3NSwieSI6NjkuMjU3MTc0ODA0MzIzNTF9LHsieCI6MTkyLjYwOTM3NSwieSI6NTl9LHsieCI6MjE3LjYwOTM3NSwieSI6NTl9XQ==" data-look="classic" marker-end="url(#m732aa2740d8e89da-0_flowchart-v2-pointEnd)"/><path d="M396.781,59L400.948,59C405.115,59,413.448,59,421.115,59C428.781,59,435.781,59,439.281,59L442.781,59" id="m732aa2740d8e89da-0-L_DESIGN_CODE_0" class="edge-thickness-normal edge-pattern-solid edge-thickness-normal edge-pattern-solid flowchart-link" style=";" data-edge="true" data-et="edge" data-id="L_DESIGN_CODE_0" data-points="W3sieCI6Mzk2Ljc4MTI1LCJ5Ijo1OX0seyJ4Ijo0MjEuNzgxMjUsInkiOjU5fSx7IngiOjQ0Ni43ODEyNSwieSI6NTl9XQ==" data-look="classic" marker-end="url(#m732aa2740d8e89da-0_flowchart-v2-pointEnd)"/><path d="M586.781,59L606.654,59C626.526,59,666.271,59,705.349,59C744.427,59,782.839,59,802.044,59L821.25,59" id="m732aa2740d8e89da-0-L_CODE_REVIEW_0" class="edge-thickness-normal edge-pattern-solid edge-thickness-normal edge-pattern-solid flowchart-link" style=";" data-edge="true" data-et="edge" data-id="L_CODE_REVIEW_0" data-points="W3sieCI6NTg2Ljc4MTI1LCJ5Ijo1OX0seyJ4Ijo3MDYuMDE1NjI1LCJ5Ijo1OX0seyJ4Ijo4MjUuMjUsInkiOjU5fV0=" data-look="classic" marker-end="url(#m732aa2740d8e89da-0_flowchart-v2-pointEnd)"/><path d="M983.953,59L988.12,59C992.286,59,1000.62,59,1008.286,59C1015.953,59,1022.953,59,1026.453,59L1029.953,59" id="m732aa2740d8e89da-0-L_REVIEW_CI_0" class="edge-thickness-normal edge-pattern-solid edge-thickness-normal edge-pattern-solid flowchart-link" style=";" data-edge="true" data-et="edge" data-id="L_REVIEW_CI_0" data-points="W3sieCI6OTgzLjk1MzEyNSwieSI6NTl9LHsieCI6MTAwOC45NTMxMjUsInkiOjU5fSx7IngiOjEwMzMuOTUzMTI1LCJ5Ijo1OX1d" data-look="classic" marker-end="url(#m732aa2740d8e89da-0_flowchart-v2-pointEnd)"/><path d="M1196.219,59L1200.385,59C1204.552,59,1212.885,59,1222.93,62.816C1232.974,66.633,1244.73,74.265,1250.608,78.081L1256.485,81.898" id="m732aa2740d8e89da-0-L_CI_MERGE_0" class="edge-thickness-normal edge-pattern-solid edge-thickness-normal edge-pattern-solid flowchart-link" style=";" data-edge="true" data-et="edge" data-id="L_CI_MERGE_0" data-points="W3sieCI6MTE5Ni4yMTg3NSwieSI6NTl9LHsieCI6MTIyMS4yMTg3NSwieSI6NTl9LHsieCI6MTI1OS44NDAzMDgzMzIyNTEsInkiOjg0LjA3NTc3ODA1MDgzOTY3fV0=" data-look="classic" marker-end="url(#m732aa2740d8e89da-0_flowchart-v2-pointEnd)"/><path d="M1330.121,102.5L1334.204,102.417C1338.287,102.333,1346.454,102.167,1354.037,102.083C1361.621,102,1368.621,102,1372.121,102L1375.621,102" id="m732aa2740d8e89da-0-L_MERGE_STAGING_0" class="edge-thickness-normal edge-pattern-solid edge-thickness-normal edge-pattern-solid flowchart-link" style=";" data-edge="true" data-et="edge" data-id="L_MERGE_STAGING_0" data-points="W3sieCI6MTMzMC4xMjA1ODc0MzE4MTIzLCJ5IjoxMDIuNDk5OTk5OTk5OTk5OTl9LHsieCI6MTM1NC42MjA1OTAyMDk5NjEsInkiOjEwMn0seyJ4IjoxMzc5LjYyMDU5MDIwOTk2MSwieSI6MTAyfV0=" data-look="classic" marker-end="url(#m732aa2740d8e89da-0_flowchart-v2-pointEnd)"/><path d="M1510.449,102L1514.615,102C1518.782,102,1527.115,102,1534.782,102C1542.449,102,1549.449,102,1552.949,102L1556.449,102" id="m732aa2740d8e89da-0-L_STAGING_CANARY_0" class="edge-thickness-normal edge-pattern-solid edge-thickness-normal edge-pattern-solid flowchart-link" style=";" data-edge="true" data-et="edge" data-id="L_STAGING_CANARY_0" data-points="W3sieCI6MTUxMC40NDg3MTUyMDk5NjEsInkiOjEwMn0seyJ4IjoxNTM1LjQ0ODcxNTIwOTk2MSwieSI6MTAyfSx7IngiOjE1NjAuNDQ4NzE1MjA5OTYxLCJ5IjoxMDJ9XQ==" data-look="classic" marker-end="url(#m732aa2740d8e89da-0_flowchart-v2-pointEnd)"/><path d="M1722.277,93.355L1743.11,91.129C1763.944,88.903,1805.61,84.452,1846.613,84.176C1887.616,83.901,1927.956,87.802,1948.126,89.753L1968.295,91.704" id="m732aa2740d8e89da-0-L_CANARY_PROD_0" class="edge-thickness-normal edge-pattern-solid edge-thickness-normal edge-pattern-solid flowchart-link" style=";" data-edge="true" data-et="edge" data-id="L_CANARY_PROD_0" data-points="W3sieCI6MTcyMi4yNzY4NDAyMDk5NjEsInkiOjkzLjM1NTA4NTkzNTQyNTEyfSx7IngiOjE4NDcuMjc2ODQwMjA5OTYxLCJ5Ijo4MH0seyJ4IjoxOTcyLjI3Njg0MDIwOTk2MSwieSI6OTIuMDg4NzQyMzU4Njc4NDd9XQ==" data-look="classic" marker-end="url(#m732aa2740d8e89da-0_flowchart-v2-pointEnd)"/><path d="M1259.84,120.924L1253.403,124.937C1246.966,128.949,1234.093,136.975,1209.967,140.987C1185.841,145,1150.464,145,1115.086,145C1079.708,145,1044.331,145,1009.25,145C974.169,145,939.385,145,888.896,145C838.406,145,772.211,145,707.574,145C642.938,145,579.859,145,532.487,145C485.115,145,453.448,145,418.517,145C383.586,145,345.391,145,307.195,145C269,145,230.805,145,208.157,143.544C185.51,142.087,178.41,139.174,174.86,137.718L171.31,136.261" id="m732aa2740d8e89da-0-L_MERGE_IDEA_0" class="edge-thickness-normal edge-pattern-dotted edge-thickness-normal edge-pattern-solid flowchart-link" style=";" data-edge="true" data-et="edge" data-id="L_MERGE_IDEA_0" data-points="W3sieCI6MTI1OS44NDAzMDgzMzIyNTM1LCJ5IjoxMjAuOTI0MjIxOTQ5MTU4Nzh9LHsieCI6MTIyMS4yMTg3NSwieSI6MTQ1fSx7IngiOjExMTUuMDg1OTM3NSwieSI6MTQ1fSx7IngiOjEwMDguOTUzMTI1LCJ5IjoxNDV9LHsieCI6OTA0LjYwMTU2MjUsInkiOjE0NX0seyJ4Ijo3MDYuMDE1NjI1LCJ5IjoxNDV9LHsieCI6NTE2Ljc4MTI1LCJ5IjoxNDV9LHsieCI6NDIxLjc4MTI1LCJ5IjoxNDV9LHsieCI6MzA3LjE5NTMxMjUsInkiOjE0NX0seyJ4IjoxOTIuNjA5Mzc1LCJ5IjoxNDV9LHsieCI6MTY3LjYwOTM3NSwieSI6MTM0Ljc0MjgyNTE5NTY3NjV9XQ==" data-look="classic" marker-end="url(#m732aa2740d8e89da-0_flowchart-v2-pointEnd)"/><path d="M1972.277,111.911L1951.444,113.926C1930.61,115.941,1888.944,119.97,1847.94,119.83C1806.936,119.69,1766.595,115.38,1746.425,113.225L1726.254,111.07" id="m732aa2740d8e89da-0-L_PROD_CANARY_0" class="edge-thickness-normal edge-pattern-dotted edge-thickness-normal edge-pattern-solid flowchart-link" style=";" data-edge="true" data-et="edge" data-id="L_PROD_CANARY_0" data-points="W3sieCI6MTk3Mi4yNzY4NDAyMDk5NjEsInkiOjExMS45MTEyNTc2NDEzMjE1M30seyJ4IjoxODQ3LjI3Njg0MDIwOTk2MSwieSI6MTI0fSx7IngiOjE3MjIuMjc2ODQwMjA5OTYxLCJ5IjoxMTAuNjQ0OTE0MDY0NTc0ODh9XQ==" data-look="classic" marker-end="url(#m732aa2740d8e89da-0_flowchart-v2-pointEnd)"/></g><g class="edgeLabels"><g class="edgeLabel"><g class="label" data-id="L_IDEA_DESIGN_0" transform="translate(0, 0)"><foreignObject width="0" height="0"><div xmlns="http://www.w3.org/1999/xhtml" class="labelBkg" style="display: table-cell; white-space: nowrap; line-height: 1.5; max-width: 200px; text-align: center;"><span class="edgeLabel"></span></div></foreignObject></g></g><g class="edgeLabel"><g class="label" data-id="L_DESIGN_CODE_0" transform="translate(0, 0)"><foreignObject width="0" height="0"><div xmlns="http://www.w3.org/1999/xhtml" class="labelBkg" style="display: table-cell; white-space: nowrap; line-height: 1.5; max-width: 200px; text-align: center;"><span class="edgeLabel"></span></div></foreignObject></g></g><g class="edgeLabel"><g class="label" data-id="L_CODE_REVIEW_0" transform="translate(0, 0)"><foreignObject width="0" height="0"><div xmlns="http://www.w3.org/1999/xhtml" class="labelBkg" style="display: table-cell; white-space: nowrap; line-height: 1.5; max-width: 200px; text-align: center;"><span class="edgeLabel"></span></div></foreignObject></g></g><g class="edgeLabel"><g class="label" data-id="L_REVIEW_CI_0" transform="translate(0, 0)"><foreignObject width="0" height="0"><div xmlns="http://www.w3.org/1999/xhtml" class="labelBkg" style="display: table-cell; white-space: nowrap; line-height: 1.5; max-width: 200px; text-align: center;"><span class="edgeLabel"></span></div></foreignObject></g></g><g class="edgeLabel"><g class="label" data-id="L_CI_MERGE_0" transform="translate(0, 0)"><foreignObject width="0" height="0"><div xmlns="http://www.w3.org/1999/xhtml" class="labelBkg" style="display: table-cell; white-space: nowrap; line-height: 1.5; max-width: 200px; text-align: center;"><span class="edgeLabel"></span></div></foreignObject></g></g><g class="edgeLabel"><g class="label" data-id="L_MERGE_STAGING_0" transform="translate(0, 0)"><foreignObject width="0" height="0"><div xmlns="http://www.w3.org/1999/xhtml" class="labelBkg" style="display: table-cell; white-space: nowrap; line-height: 1.5; max-width: 200px; text-align: center;"><span class="edgeLabel"></span></div></foreignObject></g></g><g class="edgeLabel"><g class="label" data-id="L_STAGING_CANARY_0" transform="translate(0, 0)"><foreignObject width="0" height="0"><div xmlns="http://www.w3.org/1999/xhtml" class="labelBkg" style="display: table-cell; white-space: nowrap; line-height: 1.5; max-width: 200px; text-align: center;"><span class="edgeLabel"></span></div></foreignObject></g></g><g class="edgeLabel"><g class="label" data-id="L_CANARY_PROD_0" transform="translate(0, 0)"><foreignObject width="0" height="0"><div xmlns="http://www.w3.org/1999/xhtml" class="labelBkg" style="display: table-cell; white-space: nowrap; line-height: 1.5; max-width: 200px; text-align: center;"><span class="edgeLabel"></span></div></foreignObject></g></g><g class="edgeLabel" transform="translate(706.015625, 145)"><g class="label" data-id="L_MERGE_IDEA_0" transform="translate(-94.234375, -12)"><foreignObject width="188.46875" height="24"><div xmlns="http://www.w3.org/1999/xhtml" class="labelBkg" style="display: table-cell; white-space: nowrap; line-height: 1.5; max-width: 200px; text-align: center;"><span class="edgeLabel"><p>← PRE-MERGE (shift-left)</p></span></div></foreignObject></g></g><g class="edgeLabel" transform="translate(1847.21309, 123.99319)"><g class="label" data-id="L_PROD_CANARY_0" transform="translate(-100, -24)"><foreignObject width="200" height="48"><div xmlns="http://www.w3.org/1999/xhtml" class="labelBkg" style="display: table; white-space: break-spaces; line-height: 1.5; max-width: 200px; text-align: center; width: 200px;"><span class="edgeLabel"><p>POST-MERGE (shift-right) →</p></span></div></foreignObject></g></g></g><g class="nodes"><g class="node default" id="m732aa2740d8e89da-0-flowchart-IDEA-0" data-look="classic" transform="translate(87.8046875, 102)"><rect class="basic label-container" style="" x="-79.8046875" y="-51" width="159.609375" height="102"/><g class="label" style="" transform="translate(-49.8046875, -36)"><rect/><foreignObject width="99.609375" height="72"><div xmlns="http://www.w3.org/1999/xhtml" style="display: table-cell; white-space: nowrap; line-height: 1.5; max-width: 200px; text-align: center;"><span class="nodeLabel"><p>IDEA<br />Requirements<br />review</p></span></div></foreignObject></g></g><g class="node default" id="m732aa2740d8e89da-0-flowchart-DESIGN-1" data-look="classic" transform="translate(307.1953125, 59)"><rect class="basic label-container" style="" x="-89.5859375" y="-51" width="179.171875" height="102"/><g class="label" style="" transform="translate(-59.5859375, -36)"><rect/><foreignObject width="119.171875" height="72"><div xmlns="http://www.w3.org/1999/xhtml" style="display: table-cell; white-space: nowrap; line-height: 1.5; max-width: 200px; text-align: center;"><span class="nodeLabel"><p>DESIGN<br />Threat modelling<br />(STRIDE)</p></span></div></foreignObject></g></g><g class="node default" id="m732aa2740d8e89da-0-flowchart-CODE-2" data-look="classic" transform="translate(516.78125, 59)"><rect class="basic label-container" style="" x="-70" y="-51" width="140" height="102"/><g class="label" style="" transform="translate(-40, -36)"><rect/><foreignObject width="80" height="72"><div xmlns="http://www.w3.org/1999/xhtml" style="display: table-cell; white-space: nowrap; line-height: 1.5; max-width: 200px; text-align: center;"><span class="nodeLabel"><p>CODE<br />TDD / BDD<br />loops</p></span></div></foreignObject></g></g><g class="node default" id="m732aa2740d8e89da-0-flowchart-REVIEW-3" data-look="classic" transform="translate(904.6015625, 59)"><rect class="basic label-container" style="" x="-79.3515625" y="-51" width="158.703125" height="102"/><g class="label" style="" transform="translate(-49.3515625, -36)"><rect/><foreignObject width="98.703125" height="72"><div xmlns="http://www.w3.org/1999/xhtml" style="display: table-cell; white-space: nowrap; line-height: 1.5; max-width: 200px; text-align: center;"><span class="nodeLabel"><p>REVIEW<br />Contract tests<br />(pre-push)</p></span></div></foreignObject></g></g><g class="node default" id="m732aa2740d8e89da-0-flowchart-CI-4" data-look="classic" transform="translate(1115.0859375, 59)"><rect class="basic label-container" style="" x="-81.1328125" y="-51" width="162.265625" height="102"/><g class="label" style="" transform="translate(-51.1328125, -36)"><rect/><foreignObject width="102.265625" height="72"><div xmlns="http://www.w3.org/1999/xhtml" style="display: table-cell; white-space: nowrap; line-height: 1.5; max-width: 200px; text-align: center;"><span class="nodeLabel"><p>CI<br />Static analysis<br />lint</p></span></div></foreignObject></g></g><g class="node default" id="m732aa2740d8e89da-0-flowchart-MERGE-5" data-look="classic" transform="translate(1287.9196701049805, 102)"><g class="basic label-container outer-path"><path d="M-22.2109375 -19.5 C-5.101626320680687 -19.5, 12.007684858638626 -19.5, 22.2109375 -19.5 C22.2109375 -19.5, 22.2109375 -19.5, 22.2109375 -19.5 C22.561300484169507 -19.488764541037863, 22.91166346833901 -19.477529082075723, 23.4603067896239 -19.45993515863156 C23.794506493388983 -19.42769531514329, 24.128706197154063 -19.39545547165502, 24.704542152847864 -19.3399052695533 C25.1161328130806 -19.27336248354011, 25.527723473313333 -19.206819697526928, 25.93853075967676 -19.140403561325776 C26.381909304149552 -19.03920530186526, 26.82528784862235 -18.938007042404738, 27.15720188623539 -18.862249829261074 C27.497864072317874 -18.761143080604096, 27.838526258400357 -18.660036331947122, 28.355547751460602 -18.50658706670804 C28.8015426222586 -18.342456831522984, 29.2475374930566 -18.17832659633793, 29.528644095147794 -18.074876768247425 C29.852731371860994 -17.93141294455398, 30.17681864857419 -17.787949120860535, 30.67167041279238 -17.568892924097174 C30.929559823619634 -17.43435218365465, 31.187449234446884 -17.29981144321212, 31.779929764076783 -16.990714730406097 C32.19801729330714 -16.737267613231616, 32.61610482253749 -16.483820496057138, 32.8488680736057 -16.342718045390892 C33.18861405493462 -16.10572595618233, 33.52836003626354 -15.868733866973763, 33.87409284457871 -15.627565626425154 C34.176891265534074 -15.38609194351764, 34.479689686489436 -15.144618260610125, 34.851391208501866 -14.848196188198123 C35.19690382853241 -14.534410768449353, 35.54241644856297 -14.220625348700583, 35.77674723676799 -14.007812326905688 C36.11631240803158 -13.657183408756989, 36.455877579295176 -13.306554490608288, 36.64635844296865 -13.10986736009568 C36.939858673162085 -12.765105289074267, 37.233358903355516 -12.420343218052855, 37.45665140812658 -12.158051136245305 C37.64514351474059 -11.905488885366706, 37.833635621354595 -11.652926634488107, 38.204296464640635 -11.156274872382312 C38.3822420667753 -10.882902642418756, 38.56018766890996 -10.6095304124552, 38.88622137860425 -10.108655082055241 C39.092572195010284 -9.742258312240352, 39.29892301141633 -9.375861542425465, 39.499623974273504 -9.019496659696287 C39.692626116944226 -8.618723580856225, 39.88562825961495 -8.217950502016162, 40.04198364880834 -7.893275190886684 C40.209684454911674 -7.479050957536932, 40.37738526101501 -7.06482672418718, 40.511071729970325 -6.734618561215508 C40.642158227476145 -6.339806916525002, 40.77324472498197 -5.944995271834496, 40.90496063421488 -5.548287939305138 C41.008999933472765 -5.15154100031731, 41.11303923273064 -4.7547940613294815, 41.22203178754556 -4.339158212148133 C41.29850644225971 -3.946477023114965, 41.37498109697386 -3.5537958340817966, 41.460982276581774 -3.1121979531509023 C41.51055845614771 -2.727694894361435, 41.56013463571366 -2.343191835571968, 41.62083020250937 -1.872449005199798 C41.642626295207464 -1.5329572679376349, 41.66442238790555 -1.1934655306754718, 41.70091871591342 -0.6250057626472757 C41.70091871591342 -0.1655588477928413, 41.70091871591342 0.2938880670615931, 41.70091871591342 0.625005762647271 C41.67551675884772 1.0206617480362206, 41.65011480178202 1.4163177334251698, 41.62083020250937 1.8724490051997846 C41.56202970031558 2.3284940887423047, 41.50322919812179 2.784539172284825, 41.460982276581774 3.1121979531508885 C41.37286647519569 3.564653969987219, 41.284750673809604 4.01710998682355, 41.22203178754556 4.339158212148129 C41.10393466927065 4.789513707745189, 40.98583755099575 5.23986920334225, 40.90496063421489 5.548287939305125 C40.81318127445199 5.824712747855827, 40.7214019146891 6.101137556406528, 40.511071729970325 6.734618561215495 C40.326939637001736 7.189428390799746, 40.14280754403315 7.644238220383996, 40.04198364880834 7.893275190886679 C39.87609722526951 8.237741898765929, 39.710210801730675 8.582208606645178, 39.499623974273504 9.019496659696284 C39.26781486547361 9.4310972055881, 39.036005756673724 9.842697751479918, 38.88622137860425 10.108655082055236 C38.642887235730825 10.482481669875252, 38.399553092857396 10.85630825769527, 38.20429646464064 11.156274872382301 C37.98216856769784 11.453906018017944, 37.76004067075504 11.751537163653587, 37.45665140812658 12.158051136245302 C37.28332497818155 12.361650223411997, 37.10999854823651 12.565249310578695, 36.64635844296866 13.10986736009567 C36.42740614721202 13.3359535817822, 36.208453851455374 13.56203980346873, 35.77674723676799 14.007812326905684 C35.42457376407245 14.3276469568083, 35.07240029137691 14.647481586710915, 34.85139120850189 14.848196188198111 C34.59664385742531 15.05135042156996, 34.34189650634874 15.25450465494181, 33.87409284457871 15.627565626425152 C33.51382302884233 15.87887425405389, 33.15355321310595 16.13018288168263, 32.84886807360571 16.34271804539089 C32.463368755730286 16.576409997332423, 32.077869437854865 16.810101949273953, 31.779929764076787 16.990714730406093 C31.540856884390436 17.115438898604975, 31.301784004704086 17.240163066803856, 30.671670412792388 17.56889292409717 C30.38899459536155 17.694025123193608, 30.106318777930714 17.819157322290046, 29.528644095147804 18.07487676824742 C29.252468884187078 18.176511798816634, 28.976293673226348 18.278146829385843, 28.355547751460616 18.506587066708033 C27.979012289788944 18.618340815257216, 27.602476828117275 18.730094563806396, 27.157201886235413 18.86224982926107 C26.82979862996599 18.936977485998653, 26.502395373696565 19.011705142736233, 25.938530759676766 19.140403561325773 C25.539235315223745 19.20495855220252, 25.139939870770725 19.269513543079263, 24.70454215284788 19.3399052695533 C24.319210316138783 19.37707776841129, 23.93387847942969 19.41425026726928, 23.4603067896239 19.45993515863156 C23.144979213397356 19.47004710025325, 22.82965163717081 19.48015904187494, 22.210937500000004 19.5 C22.210937500000004 19.5, 22.210937500000004 19.5, 22.2109375 19.5 C9.596362477384744 19.5, -3.0182125452305115 19.5, -22.210937499999996 19.5 C-22.604664285000037 19.487373948347745, -22.99839107000008 19.47474789669549, -23.460306789623893 19.45993515863156 C-23.86025456707161 19.421352677548754, -24.260202344519325 19.38277019646595, -24.70454215284787 19.3399052695533 C-25.11657640945576 19.27329076631832, -25.52861066606365 19.206676263083338, -25.93853075967676 19.140403561325773 C-26.2880854974608 19.060619973484407, -26.637640235244838 18.98083638564304, -27.157201886235388 18.862249829261074 C-27.532360540015212 18.750904710067182, -27.907519193795036 18.63955959087329, -28.35554775146059 18.506587066708043 C-28.59566779652661 18.418220670478384, -28.83578784159263 18.329854274248724, -29.528644095147797 18.074876768247425 C-29.85048034584028 17.93240940699904, -30.172316596532756 17.78994204575065, -30.67167041279238 17.568892924097174 C-31.091236723895804 17.350005448339566, -31.510803034999224 17.13111797258196, -31.77992976407678 16.990714730406097 C-32.08482229368293 16.805887087211463, -32.38971482328908 16.62105944401683, -32.848868073605686 16.3427180453909 C-33.13151776225265 16.145553858298594, -33.41416745089961 15.94838967120629, -33.87409284457871 15.627565626425156 C-34.24541171703955 15.331448706847814, -34.61673058950039 15.035331787270472, -34.851391208501866 14.848196188198125 C-35.16936918250119 14.559417005448095, -35.487347156500526 14.270637822698067, -35.776747236767974 14.007812326905697 C-35.997080779376134 13.7802998544425, -36.21741432198429 13.552787381979305, -36.646358442968655 13.109867360095677 C-36.86851488414938 12.848909763225189, -37.090671325330106 12.587952166354698, -37.456651408126575 12.158051136245307 C-37.622101007507595 11.936363745843323, -37.787550606888615 11.71467635544134, -38.204296464640635 11.156274872382316 C-38.438145878259405 10.797019375703872, -38.671995291878176 10.437763879025427, -38.88622137860425 10.108655082055249 C-39.05991663790417 9.800241560615985, -39.2336118972041 9.491828039176724, -39.499623974273504 9.019496659696289 C-39.696592806822444 8.610486664450537, -39.893561639371384 8.201476669204784, -40.04198364880834 7.893275190886686 C-40.164925148099435 7.589607310725503, -40.28786664739052 7.285939430564319, -40.511071729970325 6.73461856121551 C-40.618517297157474 6.411009631974113, -40.72596286434463 6.087400702732717, -40.90496063421488 5.5482879393051325 C-40.995551039626164 5.202827461341839, -41.086141445037455 4.857366983378544, -41.22203178754556 4.339158212148136 C-41.29883832618531 3.9447728693006927, -41.37564486482506 3.5503875264532496, -41.460982276581774 3.112197953150904 C-41.49809247533668 2.8243785798454346, -41.5352026740916 2.5365592065399656, -41.62083020250937 1.872449005199809 C-41.64093040249618 1.5593721658157436, -41.661030602483 1.2462953264316778, -41.70091871591342 0.6250057626472781 C-41.70091871591342 0.2869334945526017, -41.70091871591342 -0.051138773542074745, -41.70091871591342 -0.6250057626472687 C-41.67565314551828 -1.0185374155528861, -41.65038757512314 -1.4120690684585033, -41.62083020250937 -1.8724490051997822 C-41.559469837706274 -2.3483478776380298, -41.498109472903174 -2.824246750076277, -41.460982276581774 -3.112197953150895 C-41.40656694775696 -3.391609165982503, -41.35215161893215 -3.6710203788141116, -41.22203178754556 -4.339158212148126 C-41.11534599632778 -4.745997371975906, -41.00866020511001 -5.152836531803685, -40.90496063421489 -5.548287939305123 C-40.80356521066949 -5.853674799857026, -40.7021697871241 -6.159061660408928, -40.51107172997033 -6.734618561215485 C-40.39040614289269 -7.032664894207696, -40.269740555815034 -7.330711227199906, -40.04198364880834 -7.893275190886676 C-39.84028519075875 -8.312106354682307, -39.63858673270916 -8.730937518477935, -39.499623974273504 -9.019496659696282 C-39.34434275145023 -9.295214194747862, -39.18906152862695 -9.570931729799442, -38.88622137860425 -10.108655082055243 C-38.705194931734134 -10.386760316855105, -38.52416848486401 -10.664865551654968, -38.20429646464064 -11.156274872382308 C-38.016748032343834 -11.40757268564636, -37.829199600047026 -11.658870498910408, -37.45665140812659 -12.158051136245302 C-37.15880284991763 -12.507921000780627, -36.860954291708666 -12.857790865315952, -36.64635844296866 -13.10986736009567 C-36.44230122439604 -13.320573191681117, -36.23824400582342 -13.531279023266562, -35.776747236767996 -14.007812326905677 C-35.45873878088235 -14.296619192498353, -35.1407303249967 -14.585426058091029, -34.85139120850189 -14.848196188198107 C-34.6226054090835 -15.03064677498846, -34.39381960966511 -15.213097361778813, -33.87409284457872 -15.627565626425149 C-33.661684650781766 -15.775732387415394, -33.449276456984805 -15.92389914840564, -32.848868073605715 -16.342718045390885 C-32.55710809380126 -16.5195846597203, -32.2653481139968 -16.696451274049718, -31.77992976407679 -16.99071473040609 C-31.452082873847143 -17.16175224304294, -31.124235983617496 -17.332789755679794, -30.671670412792388 -17.56889292409717 C-30.328615749480853 -17.720753047190165, -29.98556108616932 -17.87261317028316, -29.528644095147804 -18.07487676824742 C-29.075148937942807 -18.24176717816214, -28.62165378073781 -18.408657588076856, -28.35554775146062 -18.506587066708033 C-28.065075412944115 -18.592797732059314, -27.774603074427613 -18.67900839741059, -27.157201886235413 -18.862249829261067 C-26.72386616052202 -18.96115588087527, -26.290530434808627 -19.06006193248947, -25.938530759676766 -19.140403561325773 C-25.563342261575897 -19.201061128068464, -25.188153763475032 -19.261718694811155, -24.704542152847882 -19.3399052695533 C-24.383257757644596 -19.37089918875754, -24.061973362441314 -19.401893107961786, -23.460306789623903 -19.45993515863156 C-23.03749347212602 -19.47349395876752, -22.614680154628136 -19.48705275890348, -22.210937500000007 -19.5 C-22.210937500000004 -19.5, -22.210937500000004 -19.5, -22.2109375 -19.5" stroke="none" stroke-width="0" fill="#eee" style=""/><path d="M-22.2109375 -19.5 C-5.342695002694704 -19.5, 11.525547494610592 -19.5, 22.2109375 -19.5 M-22.2109375 -19.5 C-10.90579382172048 -19.5, 0.3993498565590414 -19.5, 22.2109375 -19.5 M22.2109375 -19.5 C22.2109375 -19.5, 22.2109375 -19.5, 22.2109375 -19.5 M22.2109375 -19.5 C22.2109375 -19.5, 22.2109375 -19.5, 22.2109375 -19.5 M22.2109375 -19.5 C22.526758155817674 -19.489872246275542, 22.84257881163535 -19.479744492551085, 23.4603067896239 -19.45993515863156 M22.2109375 -19.5 C22.556338393762523 -19.48892366561909, 22.901739287525043 -19.47784733123818, 23.4603067896239 -19.45993515863156 M23.4603067896239 -19.45993515863156 C23.895956520490955 -19.41790855304027, 24.331606251358007 -19.375881947448985, 24.704542152847864 -19.3399052695533 M23.4603067896239 -19.45993515863156 C23.78475327056778 -19.428636196818886, 24.109199751511664 -19.39733723500621, 24.704542152847864 -19.3399052695533 M24.704542152847864 -19.3399052695533 C24.99115354919544 -19.2935681616964, 25.277764945543016 -19.2472310538395, 25.93853075967676 -19.140403561325776 M24.704542152847864 -19.3399052695533 C24.967195517856936 -19.2974415104059, 25.229848882866005 -19.2549777512585, 25.93853075967676 -19.140403561325776 M25.93853075967676 -19.140403561325776 C26.308552763487153 -19.055948453575287, 26.678574767297544 -18.971493345824797, 27.15720188623539 -18.862249829261074 M25.93853075967676 -19.140403561325776 C26.390308991362122 -19.03728812807207, 26.842087223047482 -18.934172694818365, 27.15720188623539 -18.862249829261074 M27.15720188623539 -18.862249829261074 C27.611052513578898 -18.72754934537608, 28.0649031409224 -18.592848861491085, 28.355547751460602 -18.50658706670804 M27.15720188623539 -18.862249829261074 C27.577320118828318 -18.7375609430731, 27.997438351421245 -18.61287205688512, 28.355547751460602 -18.50658706670804 M28.355547751460602 -18.50658706670804 C28.701729376477708 -18.37918902863388, 29.04791100149481 -18.251790990559726, 29.528644095147794 -18.074876768247425 M28.355547751460602 -18.50658706670804 C28.73192228944526 -18.368077757561593, 29.108296827429925 -18.229568448415147, 29.528644095147794 -18.074876768247425 M29.528644095147794 -18.074876768247425 C29.861457129905965 -17.927550310307886, 30.194270164664136 -17.780223852368348, 30.67167041279238 -17.568892924097174 M29.528644095147794 -18.074876768247425 C29.877279833451954 -17.920546068811902, 30.22591557175612 -17.766215369376376, 30.67167041279238 -17.568892924097174 M30.67167041279238 -17.568892924097174 C31.059956674268186 -17.36632423019447, 31.448242935743988 -17.163755536291763, 31.779929764076783 -16.990714730406097 M30.67167041279238 -17.568892924097174 C30.9494477167833 -17.423976682529965, 31.227225020774224 -17.27906044096276, 31.779929764076783 -16.990714730406097 M31.779929764076783 -16.990714730406097 C32.095535876053745 -16.799392450618278, 32.41114198803071 -16.60807017083046, 32.8488680736057 -16.342718045390892 M31.779929764076783 -16.990714730406097 C32.18115546800586 -16.747489350820334, 32.58238117193494 -16.504263971234572, 32.8488680736057 -16.342718045390892 M32.8488680736057 -16.342718045390892 C33.236674886299404 -16.072200800742113, 33.6244816989931 -15.801683556093337, 33.87409284457871 -15.627565626425154 M32.8488680736057 -16.342718045390892 C33.22553973720239 -16.079968198719353, 33.602211400799085 -15.817218352047815, 33.87409284457871 -15.627565626425154 M33.87409284457871 -15.627565626425154 C34.12410388385934 -15.428188475672016, 34.37411492313998 -15.228811324918878, 34.851391208501866 -14.848196188198123 M33.87409284457871 -15.627565626425154 C34.1897178469516 -15.375863086166826, 34.5053428493245 -15.124160545908495, 34.851391208501866 -14.848196188198123 M34.851391208501866 -14.848196188198123 C35.19102428061745 -14.539750418301416, 35.53065735273303 -14.231304648404707, 35.77674723676799 -14.007812326905688 M34.851391208501866 -14.848196188198123 C35.19025464016368 -14.540449385397958, 35.52911807182549 -14.232702582597792, 35.77674723676799 -14.007812326905688 M35.77674723676799 -14.007812326905688 C36.07502632165604 -13.69981468259047, 36.373305406544084 -13.391817038275253, 36.64635844296865 -13.10986736009568 M35.77674723676799 -14.007812326905688 C35.97501221694571 -13.803087457014595, 36.173277197123426 -13.5983625871235, 36.64635844296865 -13.10986736009568 M36.64635844296865 -13.10986736009568 C36.90568466765079 -12.805248020503836, 37.16501089233292 -12.500628680911992, 37.45665140812658 -12.158051136245305 M36.64635844296865 -13.10986736009568 C36.928031570296156 -12.7789980770818, 37.20970469762367 -12.44812879406792, 37.45665140812658 -12.158051136245305 M37.45665140812658 -12.158051136245305 C37.73093534549627 -11.790535647950662, 38.00521928286596 -11.423020159656017, 38.204296464640635 -11.156274872382312 M37.45665140812658 -12.158051136245305 C37.699930230745956 -11.832079677092025, 37.94320905336532 -11.506108217938745, 38.204296464640635 -11.156274872382312 M38.204296464640635 -11.156274872382312 C38.38140537335114 -10.8841880282019, 38.55851428206165 -10.612101184021487, 38.88622137860425 -10.108655082055241 M38.204296464640635 -11.156274872382312 C38.37315170372899 -10.896867881162143, 38.54200694281735 -10.637460889941975, 38.88622137860425 -10.108655082055241 M38.88622137860425 -10.108655082055241 C39.09597104453722 -9.736223310734442, 39.3057207104702 -9.36379153941364, 39.499623974273504 -9.019496659696287 M38.88622137860425 -10.108655082055241 C39.047632563352366 -9.822053178880154, 39.20904374810048 -9.535451275705066, 39.499623974273504 -9.019496659696287 M39.499623974273504 -9.019496659696287 C39.65324659549206 -8.700495999738429, 39.806869216710616 -8.381495339780571, 40.04198364880834 -7.893275190886684 M39.499623974273504 -9.019496659696287 C39.672553448576686 -8.660404906207729, 39.84548292287986 -8.301313152719171, 40.04198364880834 -7.893275190886684 M40.04198364880834 -7.893275190886684 C40.13607301247404 -7.660872643538314, 40.23016237613974 -7.428470096189942, 40.511071729970325 -6.734618561215508 M40.04198364880834 -7.893275190886684 C40.17729004199271 -7.559065783750129, 40.31259643517709 -7.224856376613575, 40.511071729970325 -6.734618561215508 M40.511071729970325 -6.734618561215508 C40.65517235695518 -6.300610432054102, 40.799272983940035 -5.866602302892695, 40.90496063421488 -5.548287939305138 M40.511071729970325 -6.734618561215508 C40.65033095575303 -6.315191961102456, 40.78959018153573 -5.895765360989403, 40.90496063421488 -5.548287939305138 M40.90496063421488 -5.548287939305138 C41.013418506212304 -5.134691067439903, 41.12187637820973 -4.7210941955746675, 41.22203178754556 -4.339158212148133 M40.90496063421488 -5.548287939305138 C40.994174632193854 -5.208076299419996, 41.083388630172834 -4.867864659534853, 41.22203178754556 -4.339158212148133 M41.22203178754556 -4.339158212148133 C41.28440905903351 -4.018864106498533, 41.34678633052145 -3.6985700008489335, 41.460982276581774 -3.1121979531509023 M41.22203178754556 -4.339158212148133 C41.28621025635843 -4.009615338918229, 41.3503887251713 -3.6800724656883252, 41.460982276581774 -3.1121979531509023 M41.460982276581774 -3.1121979531509023 C41.51280313723344 -2.71028559112296, 41.56462399788511 -2.308373229095018, 41.62083020250937 -1.872449005199798 M41.460982276581774 -3.1121979531509023 C41.498837881571326 -2.8185973562866913, 41.53669348656087 -2.5249967594224803, 41.62083020250937 -1.872449005199798 M41.62083020250937 -1.872449005199798 C41.64153581549544 -1.54994236967177, 41.66224142848151 -1.227435734143742, 41.70091871591342 -0.6250057626472757 M41.62083020250937 -1.872449005199798 C41.6454149191003 -1.4895221998700552, 41.66999963569122 -1.1065953945403124, 41.70091871591342 -0.6250057626472757 M41.70091871591342 -0.6250057626472757 C41.70091871591342 -0.3280988137389387, 41.70091871591342 -0.031191864830601657, 41.70091871591342 0.625005762647271 M41.70091871591342 -0.6250057626472757 C41.70091871591342 -0.14017891934583715, 41.70091871591342 0.3446479239556014, 41.70091871591342 0.625005762647271 M41.70091871591342 0.625005762647271 C41.675008543696045 1.0285776092474521, 41.649098371478665 1.4321494558476333, 41.62083020250937 1.8724490051997846 M41.70091871591342 0.625005762647271 C41.68214722408898 0.9173868998884107, 41.663375732264534 1.2097680371295503, 41.62083020250937 1.8724490051997846 M41.62083020250937 1.8724490051997846 C41.574317634245936 2.2331912997054646, 41.527805065982506 2.593933594211145, 41.460982276581774 3.1121979531508885 M41.62083020250937 1.8724490051997846 C41.58260112189957 2.1689462052235084, 41.544372041289776 2.4654434052472323, 41.460982276581774 3.1121979531508885 M41.460982276581774 3.1121979531508885 C41.372627670236824 3.5658801829795586, 41.284273063891874 4.019562412808228, 41.22203178754556 4.339158212148129 M41.460982276581774 3.1121979531508885 C41.39157236217005 3.4686031938644954, 41.32216244775832 3.825008434578102, 41.22203178754556 4.339158212148129 M41.22203178754556 4.339158212148129 C41.1121635128962 4.758133560597588, 41.00229523824684 5.177108909047047, 40.90496063421489 5.548287939305125 M41.22203178754556 4.339158212148129 C41.096256292175916 4.818794687437108, 40.97048079680627 5.298431162726086, 40.90496063421489 5.548287939305125 M40.90496063421489 5.548287939305125 C40.790312281616046 5.893590510598513, 40.675663929017205 6.238893081891901, 40.511071729970325 6.734618561215495 M40.90496063421489 5.548287939305125 C40.81671162859766 5.814079883654632, 40.72846262298043 6.079871828004139, 40.511071729970325 6.734618561215495 M40.511071729970325 6.734618561215495 C40.38426394577592 7.047836239837395, 40.257456161581516 7.3610539184592945, 40.04198364880834 7.893275190886679 M40.511071729970325 6.734618561215495 C40.379241753823564 7.060241151057196, 40.2474117776768 7.385863740898896, 40.04198364880834 7.893275190886679 M40.04198364880834 7.893275190886679 C39.82756021161393 8.338530046147469, 39.61313677441951 8.783784901408257, 39.499623974273504 9.019496659696284 M40.04198364880834 7.893275190886679 C39.85321049569095 8.285266682433363, 39.664437342573564 8.677258173980048, 39.499623974273504 9.019496659696284 M39.499623974273504 9.019496659696284 C39.36593219887684 9.2568799446733, 39.23224042348018 9.494263229650315, 38.88622137860425 10.108655082055236 M39.499623974273504 9.019496659696284 C39.37561248567495 9.239691615227931, 39.251600997076395 9.459886570759577, 38.88622137860425 10.108655082055236 M38.88622137860425 10.108655082055236 C38.71537505402745 10.371120915266973, 38.54452872945064 10.633586748478711, 38.20429646464064 11.156274872382301 M38.88622137860425 10.108655082055236 C38.733456863738255 10.343342399905405, 38.58069234887226 10.578029717755573, 38.20429646464064 11.156274872382301 M38.20429646464064 11.156274872382301 C37.948203004221 11.499416778750428, 37.69210954380135 11.842558685118552, 37.45665140812658 12.158051136245302 M38.20429646464064 11.156274872382301 C37.93964842813914 11.51087913136221, 37.675000391637624 11.865483390342117, 37.45665140812658 12.158051136245302 M37.45665140812658 12.158051136245302 C37.18531093641881 12.47678309402348, 36.91397046471104 12.795515051801658, 36.64635844296866 13.10986736009567 M37.45665140812658 12.158051136245302 C37.29072705145638 12.352955326953483, 37.12480269478617 12.547859517661665, 36.64635844296866 13.10986736009567 M36.64635844296866 13.10986736009567 C36.36970915180369 13.395530466552716, 36.093059860638725 13.681193573009761, 35.77674723676799 14.007812326905684 M36.64635844296866 13.10986736009567 C36.459234035663236 13.303088673838081, 36.2721096283578 13.49630998758049, 35.77674723676799 14.007812326905684 M35.77674723676799 14.007812326905684 C35.45126241027106 14.3034090344736, 35.12577758377414 14.599005742041514, 34.85139120850189 14.848196188198111 M35.77674723676799 14.007812326905684 C35.591123491738585 14.17639090080623, 35.40549974670918 14.344969474706774, 34.85139120850189 14.848196188198111 M34.85139120850189 14.848196188198111 C34.49924212507175 15.129025711152973, 34.14709304164161 15.409855234107837, 33.87409284457871 15.627565626425152 M34.85139120850189 14.848196188198111 C34.4856953620682 15.139828894153801, 34.11999951563451 15.431461600109492, 33.87409284457871 15.627565626425152 M33.87409284457871 15.627565626425152 C33.55211761749271 15.852161606757408, 33.23014239040671 16.076757587089663, 32.84886807360571 16.34271804539089 M33.87409284457871 15.627565626425152 C33.55233765995359 15.852008114662187, 33.23058247532846 16.07645060289922, 32.84886807360571 16.34271804539089 M32.84886807360571 16.34271804539089 C32.46302758828986 16.576616815039728, 32.07718710297402 16.810515584688567, 31.779929764076787 16.990714730406093 M32.84886807360571 16.34271804539089 C32.584534380887355 16.502958683313956, 32.32020068816901 16.663199321237023, 31.779929764076787 16.990714730406093 M31.779929764076787 16.990714730406093 C31.461646113237673 17.156763107178453, 31.143362462398557 17.322811483950808, 30.671670412792388 17.56889292409717 M31.779929764076787 16.990714730406093 C31.54950031826368 17.11092962468969, 31.31907087245057 17.23114451897328, 30.671670412792388 17.56889292409717 M30.671670412792388 17.56889292409717 C30.229055016529696 17.764825630303434, 29.786439620267004 17.9607583365097, 29.528644095147804 18.07487676824742 M30.671670412792388 17.56889292409717 C30.426391807355603 17.677470486792718, 30.181113201918816 17.78604804948827, 29.528644095147804 18.07487676824742 M29.528644095147804 18.07487676824742 C29.205594716964004 18.193761925654776, 28.882545338780208 18.312647083062128, 28.355547751460616 18.506587066708033 M29.528644095147804 18.07487676824742 C29.145593257635444 18.215843017335096, 28.762542420123083 18.35680926642277, 28.355547751460616 18.506587066708033 M28.355547751460616 18.506587066708033 C28.11578177088619 18.577748351185207, 27.87601579031177 18.648909635662385, 27.157201886235413 18.86224982926107 M28.355547751460616 18.506587066708033 C28.062148260110522 18.593666495655384, 27.768748768760428 18.680745924602736, 27.157201886235413 18.86224982926107 M27.157201886235413 18.86224982926107 C26.68790105493977 18.969364681530173, 26.218600223644124 19.076479533799276, 25.938530759676766 19.140403561325773 M27.157201886235413 18.86224982926107 C26.85310871499029 18.931657111204377, 26.54901554374517 19.00106439314768, 25.938530759676766 19.140403561325773 M25.938530759676766 19.140403561325773 C25.64348011418205 19.188105061537428, 25.348429468687335 19.235806561749087, 24.70454215284788 19.3399052695533 M25.938530759676766 19.140403561325773 C25.54555856224867 19.20393625866104, 25.152586364820575 19.26746895599631, 24.70454215284788 19.3399052695533 M24.70454215284788 19.3399052695533 C24.44595440259782 19.36485091882265, 24.187366652347762 19.389796568092006, 23.4603067896239 19.45993515863156 M24.70454215284788 19.3399052695533 C24.448486839199866 19.364606617709352, 24.192431525551854 19.389307965865406, 23.4603067896239 19.45993515863156 M23.4603067896239 19.45993515863156 C23.106848866187125 19.471269866272063, 22.75339094275035 19.48260457391257, 22.210937500000004 19.5 M23.4603067896239 19.45993515863156 C23.153298755404403 19.46978030873409, 22.846290721184907 19.479625458836622, 22.210937500000004 19.5 M22.210937500000004 19.5 C22.210937500000004 19.5, 22.2109375 19.5, 22.2109375 19.5 M22.210937500000004 19.5 C22.210937500000004 19.5, 22.2109375 19.5, 22.2109375 19.5 M22.2109375 19.5 C11.024556180767233 19.5, -0.16182513846553448 19.5, -22.210937499999996 19.5 M22.2109375 19.5 C12.164473189180985 19.5, 2.1180088783619695 19.5, -22.210937499999996 19.5 M-22.210937499999996 19.5 C-22.64751446008415 19.485999826635602, -23.084091420168303 19.471999653271208, -23.460306789623893 19.45993515863156 M-22.210937499999996 19.5 C-22.62454349546335 19.48673646076072, -23.038149490926703 19.473472921521445, -23.460306789623893 19.45993515863156 M-23.460306789623893 19.45993515863156 C-23.911668544345677 19.41639283299548, -24.36303029906746 19.3728505073594, -24.70454215284787 19.3399052695533 M-23.460306789623893 19.45993515863156 C-23.873553860476722 19.420069710708702, -24.28680093132955 19.38020426278585, -24.70454215284787 19.3399052695533 M-24.70454215284787 19.3399052695533 C-25.11629063667696 19.273336967844994, -25.528039120506055 19.206768666136686, -25.93853075967676 19.140403561325773 M-24.70454215284787 19.3399052695533 C-25.143900068566534 19.268873289011427, -25.5832579842852 19.19784130846956, -25.93853075967676 19.140403561325773 M-25.93853075967676 19.140403561325773 C-26.36061603454446 19.044065351701047, -26.78270130941216 18.947727142076324, -27.157201886235388 18.862249829261074 M-25.93853075967676 19.140403561325773 C-26.324963632634834 19.052202779783254, -26.711396505592912 18.964001998240736, -27.157201886235388 18.862249829261074 M-27.157201886235388 18.862249829261074 C-27.53669693547478 18.749617690656986, -27.91619198471417 18.6369855520529, -28.35554775146059 18.506587066708043 M-27.157201886235388 18.862249829261074 C-27.464961372905535 18.770908429079885, -27.77272085957568 18.6795670288987, -28.35554775146059 18.506587066708043 M-28.35554775146059 18.506587066708043 C-28.80995168204187 18.339362219790246, -29.264355612623145 18.17213737287245, -29.528644095147797 18.074876768247425 M-28.35554775146059 18.506587066708043 C-28.69251765863456 18.382579025952346, -29.02948756580853 18.258570985196652, -29.528644095147797 18.074876768247425 M-29.528644095147797 18.074876768247425 C-29.845868902647226 17.934450756107, -30.163093710146654 17.794024743966574, -30.67167041279238 17.568892924097174 M-29.528644095147797 18.074876768247425 C-29.806112355697145 17.952049800105737, -30.08358061624649 17.82922283196405, -30.67167041279238 17.568892924097174 M-30.67167041279238 17.568892924097174 C-31.106146558742267 17.34222699705037, -31.54062270469215 17.11556107000357, -31.77992976407678 16.990714730406097 M-30.67167041279238 17.568892924097174 C-30.953598275058656 17.421811338936273, -31.235526137324932 17.274729753775368, -31.77992976407678 16.990714730406097 M-31.77992976407678 16.990714730406097 C-32.163609681801645 16.758125709527814, -32.547289599526515 16.525536688649527, -32.848868073605686 16.3427180453909 M-31.77992976407678 16.990714730406097 C-32.0673708644651 16.816466246159298, -32.35481196485341 16.642217761912494, -32.848868073605686 16.3427180453909 M-32.848868073605686 16.3427180453909 C-33.18762559620938 16.106415462199365, -33.52638311881308 15.870112879007829, -33.87409284457871 15.627565626425156 M-32.848868073605686 16.3427180453909 C-33.25174355529421 16.0616895495635, -33.65461903698274 15.780661053736104, -33.87409284457871 15.627565626425156 M-33.87409284457871 15.627565626425156 C-34.204050468145766 15.364433202171549, -34.53400809171283 15.101300777917942, -34.851391208501866 14.848196188198125 M-33.87409284457871 15.627565626425156 C-34.0870498139664 15.457738110361428, -34.30000678335409 15.287910594297701, -34.851391208501866 14.848196188198125 M-34.851391208501866 14.848196188198125 C-35.055383384791405 14.662935891029187, -35.259375561080944 14.477675593860248, -35.776747236767974 14.007812326905697 M-34.851391208501866 14.848196188198125 C-35.06423027765823 14.654901377003494, -35.27706934681459 14.461606565808863, -35.776747236767974 14.007812326905697 M-35.776747236767974 14.007812326905697 C-35.993272846865096 13.784231857397224, -36.20979845696221 13.560651387888752, -36.646358442968655 13.109867360095677 M-35.776747236767974 14.007812326905697 C-36.00320842759823 13.773972554563912, -36.22966961842849 13.540132782222127, -36.646358442968655 13.109867360095677 M-36.646358442968655 13.109867360095677 C-36.91599578172263 12.793135999196043, -37.185633120476595 12.476404638296408, -37.456651408126575 12.158051136245307 M-36.646358442968655 13.109867360095677 C-36.82220373704594 12.903309471791813, -36.998049031123216 12.696751583487949, -37.456651408126575 12.158051136245307 M-37.456651408126575 12.158051136245307 C-37.75227024457085 11.761948826840012, -38.04788908101513 11.365846517434717, -38.204296464640635 11.156274872382316 M-37.456651408126575 12.158051136245307 C-37.60647491281144 11.95730128916965, -37.75629841749632 11.75655144209399, -38.204296464640635 11.156274872382316 M-38.204296464640635 11.156274872382316 C-38.46478879748198 10.75608869715244, -38.725281130323324 10.355902521922566, -38.88622137860425 10.108655082055249 M-38.204296464640635 11.156274872382316 C-38.471346414122415 10.746014437026103, -38.7383963636042 10.335754001669892, -38.88622137860425 10.108655082055249 M-38.88622137860425 10.108655082055249 C-39.025944620897974 9.860562316850245, -39.1656678631917 9.612469551645242, -39.499623974273504 9.019496659696289 M-38.88622137860425 10.108655082055249 C-39.09137497650526 9.744384094927552, -39.296528574406274 9.380113107799854, -39.499623974273504 9.019496659696289 M-39.499623974273504 9.019496659696289 C-39.654675462815675 8.69752892616808, -39.809726951357845 8.37556119263987, -40.04198364880834 7.893275190886686 M-39.499623974273504 9.019496659696289 C-39.62846579397288 8.751953864317215, -39.75730761367226 8.48441106893814, -40.04198364880834 7.893275190886686 M-40.04198364880834 7.893275190886686 C-40.216643655298455 7.4618615980345995, -40.39130366178857 7.030448005182514, -40.511071729970325 6.73461856121551 M-40.04198364880834 7.893275190886686 C-40.1562533088651 7.611026921292921, -40.27052296892185 7.328778651699155, -40.511071729970325 6.73461856121551 M-40.511071729970325 6.73461856121551 C-40.60086757080077 6.464167795658496, -40.69066341163123 6.193717030101483, -40.90496063421488 5.5482879393051325 M-40.511071729970325 6.73461856121551 C-40.63462134207726 6.362506814506847, -40.75817095418419 5.990395067798183, -40.90496063421488 5.5482879393051325 M-40.90496063421488 5.5482879393051325 C-40.98372336157008 5.247931523917805, -41.062486088925276 4.947575108530476, -41.22203178754556 4.339158212148136 M-40.90496063421488 5.5482879393051325 C-41.017383749089646 5.1195698778014656, -41.129806863964404 4.6908518162977995, -41.22203178754556 4.339158212148136 M-41.22203178754556 4.339158212148136 C-41.27000551192764 4.092823276696369, -41.31797923630973 3.8464883412446027, -41.460982276581774 3.112197953150904 M-41.22203178754556 4.339158212148136 C-41.28433598724552 4.019239314686126, -41.34664018694547 3.699320417224116, -41.460982276581774 3.112197953150904 M-41.460982276581774 3.112197953150904 C-41.512259942310244 2.7144985036813276, -41.563537608038715 2.3167990542117507, -41.62083020250937 1.872449005199809 M-41.460982276581774 3.112197953150904 C-41.515266450884724 2.691180616879905, -41.56955062518768 2.270163280608906, -41.62083020250937 1.872449005199809 M-41.62083020250937 1.872449005199809 C-41.64321603577255 1.5237715826064564, -41.66560186903572 1.1750941600131037, -41.70091871591342 0.6250057626472781 M-41.62083020250937 1.872449005199809 C-41.64210852448582 1.5410219648641799, -41.663386846462274 1.2095949245285509, -41.70091871591342 0.6250057626472781 M-41.70091871591342 0.6250057626472781 C-41.70091871591342 0.2221005238347989, -41.70091871591342 -0.18080471497768036, -41.70091871591342 -0.6250057626472687 M-41.70091871591342 0.6250057626472781 C-41.70091871591342 0.2314509599499806, -41.70091871591342 -0.16210384274731693, -41.70091871591342 -0.6250057626472687 M-41.70091871591342 -0.6250057626472687 C-41.68340268074154 -0.8978321491384245, -41.66588664556966 -1.1706585356295802, -41.62083020250937 -1.8724490051997822 M-41.70091871591342 -0.6250057626472687 C-41.669781058160645 -1.1099999160116092, -41.63864340040788 -1.5949940693759497, -41.62083020250937 -1.8724490051997822 M-41.62083020250937 -1.8724490051997822 C-41.578246211048175 -2.2027220338125275, -41.53566221958698 -2.532995062425273, -41.460982276581774 -3.112197953150895 M-41.62083020250937 -1.8724490051997822 C-41.56797649156094 -2.282371950170026, -41.515122780612515 -2.6922948951402703, -41.460982276581774 -3.112197953150895 M-41.460982276581774 -3.112197953150895 C-41.396447354059106 -3.4435711408440954, -41.33191243153644 -3.7749443285372957, -41.22203178754556 -4.339158212148126 M-41.460982276581774 -3.112197953150895 C-41.41138581194456 -3.366865316846464, -41.36178934730735 -3.6215326805420327, -41.22203178754556 -4.339158212148126 M-41.22203178754556 -4.339158212148126 C-41.10456653551268 -4.787104127911764, -40.9871012834798 -5.235050043675402, -40.90496063421489 -5.548287939305123 M-41.22203178754556 -4.339158212148126 C-41.100157031327285 -4.803919478461878, -40.97828227510902 -5.26868074477563, -40.90496063421489 -5.548287939305123 M-40.90496063421489 -5.548287939305123 C-40.8149672704791 -5.819333612382004, -40.724973906743315 -6.090379285458885, -40.51107172997033 -6.734618561215485 M-40.90496063421489 -5.548287939305123 C-40.81535815498947 -5.818156330515778, -40.72575567576404 -6.088024721726434, -40.51107172997033 -6.734618561215485 M-40.51107172997033 -6.734618561215485 C-40.33233408991916 -7.176103987799063, -40.15359644986799 -7.617589414382642, -40.04198364880834 -7.893275190886676 M-40.51107172997033 -6.734618561215485 C-40.364227374877466 -7.097326957337331, -40.2173830197846 -7.460035353459177, -40.04198364880834 -7.893275190886676 M-40.04198364880834 -7.893275190886676 C-39.86235363292555 -8.266280762333924, -39.682723617042754 -8.639286333781174, -39.499623974273504 -9.019496659696282 M-40.04198364880834 -7.893275190886676 C-39.872290466793196 -8.245646714193569, -39.70259728477805 -8.598018237500462, -39.499623974273504 -9.019496659696282 M-39.499623974273504 -9.019496659696282 C-39.3677673009001 -9.253621535206777, -39.23591062752669 -9.487746410717271, -38.88622137860425 -10.108655082055243 M-39.499623974273504 -9.019496659696282 C-39.30172551376671 -9.370885415718211, -39.10382705325992 -9.722274171740143, -38.88622137860425 -10.108655082055243 M-38.88622137860425 -10.108655082055243 C-38.677504497715724 -10.429300259430038, -38.46878761682721 -10.749945436804833, -38.20429646464064 -11.156274872382308 M-38.88622137860425 -10.108655082055243 C-38.70926844386247 -10.380502308334814, -38.53231550912069 -10.652349534614386, -38.20429646464064 -11.156274872382308 M-38.20429646464064 -11.156274872382308 C-37.99858354676941 -11.43191144149741, -37.79287062889817 -11.707548010612514, -37.45665140812659 -12.158051136245302 M-38.20429646464064 -11.156274872382308 C-37.96412137789636 -11.478087608219122, -37.72394629115208 -11.799900344055935, -37.45665140812659 -12.158051136245302 M-37.45665140812659 -12.158051136245302 C-37.1411172451218 -12.528695518513228, -36.82558308211701 -12.899339900781154, -36.64635844296866 -13.10986736009567 M-37.45665140812659 -12.158051136245302 C-37.22083030199918 -12.435060026103626, -36.98500919587177 -12.71206891596195, -36.64635844296866 -13.10986736009567 M-36.64635844296866 -13.10986736009567 C-36.440424540196986 -13.322511022195277, -36.23449063742532 -13.535154684294884, -35.776747236767996 -14.007812326905677 M-36.64635844296866 -13.10986736009567 C-36.369771739339356 -13.395465839783613, -36.09318503571004 -13.681064319471556, -35.776747236767996 -14.007812326905677 M-35.776747236767996 -14.007812326905677 C-35.52263826962077 -14.238587367513947, -35.26852930247354 -14.469362408122215, -34.85139120850189 -14.848196188198107 M-35.776747236767996 -14.007812326905677 C-35.54965003272123 -14.214055998958196, -35.32255282867446 -14.420299671010714, -34.85139120850189 -14.848196188198107 M-34.85139120850189 -14.848196188198107 C-34.5543571997285 -15.085072905787944, -34.25732319095512 -15.321949623377783, -33.87409284457872 -15.627565626425149 M-34.85139120850189 -14.848196188198107 C-34.626444859253596 -15.027584915649866, -34.40149851000531 -15.206973643101625, -33.87409284457872 -15.627565626425149 M-33.87409284457872 -15.627565626425149 C-33.49661700641168 -15.890876430464806, -33.119141168244646 -16.154187234504462, -32.848868073605715 -16.342718045390885 M-33.87409284457872 -15.627565626425149 C-33.63217093121289 -15.796319880558311, -33.39024901784706 -15.965074134691475, -32.848868073605715 -16.342718045390885 M-32.848868073605715 -16.342718045390885 C-32.53906154602132 -16.530524583037785, -32.22925501843693 -16.718331120684688, -31.77992976407679 -16.99071473040609 M-32.848868073605715 -16.342718045390885 C-32.53052628877033 -16.535698706142075, -32.21218450393496 -16.72867936689326, -31.77992976407679 -16.99071473040609 M-31.77992976407679 -16.99071473040609 C-31.39506536830901 -17.191498239160733, -31.010200972541227 -17.392281747915373, -30.671670412792388 -17.56889292409717 M-31.77992976407679 -16.99071473040609 C-31.489280831801942 -17.142346092204352, -31.198631899527093 -17.293977454002615, -30.671670412792388 -17.56889292409717 M-30.671670412792388 -17.56889292409717 C-30.22063594620072 -17.768552502995224, -29.769601479609047 -17.968212081893277, -29.528644095147804 -18.07487676824742 M-30.671670412792388 -17.56889292409717 C-30.43263078295992 -17.674708677365324, -30.19359115312745 -17.780524430633477, -29.528644095147804 -18.07487676824742 M-29.528644095147804 -18.07487676824742 C-29.20812453710823 -18.1928309284563, -28.887604979068655 -18.310785088665178, -28.35554775146062 -18.506587066708033 M-29.528644095147804 -18.07487676824742 C-29.219231202651972 -18.188743572867313, -28.90981831015614 -18.302610377487202, -28.35554775146062 -18.506587066708033 M-28.35554775146062 -18.506587066708033 C-27.994642212990193 -18.613701936094227, -27.633736674519767 -18.720816805480418, -27.157201886235413 -18.862249829261067 M-28.35554775146062 -18.506587066708033 C-28.048935257880053 -18.597588045360922, -27.74232276429949 -18.68858902401381, -27.157201886235413 -18.862249829261067 M-27.157201886235413 -18.862249829261067 C-26.865925641110287 -18.92873173145574, -26.574649395985166 -18.99521363365042, -25.938530759676766 -19.140403561325773 M-27.157201886235413 -18.862249829261067 C-26.704093483292407 -18.965668865424153, -26.250985080349402 -19.069087901587235, -25.938530759676766 -19.140403561325773 M-25.938530759676766 -19.140403561325773 C-25.624258258607163 -19.19121270207906, -25.309985757537557 -19.24202184283235, -24.704542152847882 -19.3399052695533 M-25.938530759676766 -19.140403561325773 C-25.60303524708236 -19.194643873995478, -25.267539734487958 -19.248884186665183, -24.704542152847882 -19.3399052695533 M-24.704542152847882 -19.3399052695533 C-24.35391526392331 -19.373729823837323, -24.003288374998736 -19.407554378121347, -23.460306789623903 -19.45993515863156 M-24.704542152847882 -19.3399052695533 C-24.274882427328553 -19.381354026532726, -23.84522270180922 -19.422802783512154, -23.460306789623903 -19.45993515863156 M-23.460306789623903 -19.45993515863156 C-23.10773101343591 -19.47124157752679, -22.75515523724792 -19.482547996422024, -22.210937500000007 -19.5 M-23.460306789623903 -19.45993515863156 C-23.00587978003629 -19.474507748340518, -22.551452770448677 -19.489080338049476, -22.210937500000007 -19.5 M-22.210937500000007 -19.5 C-22.210937500000004 -19.5, -22.210937500000004 -19.5, -22.2109375 -19.5 M-22.210937500000007 -19.5 C-22.210937500000004 -19.5, -22.2109375 -19.5, -22.2109375 -19.5" stroke="#999" stroke-width="1.3" fill="none" stroke-dasharray="0 0" style=""/></g><g class="label" style="" transform="translate(-29.3359375, -12)"><rect/><foreignObject width="58.671875" height="24"><div xmlns="http://www.w3.org/1999/xhtml" style="display: table-cell; white-space: nowrap; line-height: 1.5; max-width: 200px; text-align: center;"><span class="nodeLabel"><p>MERGE</p></span></div></foreignObject></g></g><g class="node default" id="m732aa2740d8e89da-0-flowchart-STAGING-6" data-look="classic" transform="translate(1445.034652709961, 102)"><rect class="basic label-container" style="" x="-65.4140625" y="-27" width="130.828125" height="54"/><g class="label" style="" transform="translate(-35.4140625, -12)"><rect/><foreignObject width="70.828125" height="24"><div xmlns="http://www.w3.org/1999/xhtml" style="display: table-cell; white-space: nowrap; line-height: 1.5; max-width: 200px; text-align: center;"><span class="nodeLabel"><p>STAGING</p></span></div></foreignObject></g></g><g class="node default" id="m732aa2740d8e89da-0-flowchart-CANARY-7" data-look="classic" transform="translate(1641.362777709961, 102)"><rect class="basic label-container" style="" x="-80.9140625" y="-51" width="161.828125" height="102"/><g class="label" style="" transform="translate(-50.9140625, -36)"><rect/><foreignObject width="101.828125" height="72"><div xmlns="http://www.w3.org/1999/xhtml" style="display: table-cell; white-space: nowrap; line-height: 1.5; max-width: 200px; text-align: center;"><span class="nodeLabel"><p>CANARY<br />Canary + SLO<br />gates</p></span></div></foreignObject></g></g><g class="node default" id="m732aa2740d8e89da-0-flowchart-PROD-8" data-look="classic" transform="translate(2074.761215209961, 102)"><rect class="basic label-container" style="" x="-102.484375" y="-51" width="204.96875" height="102"/><g class="label" style="" transform="translate(-72.484375, -36)"><rect/><foreignObject width="144.96875" height="72"><div xmlns="http://www.w3.org/1999/xhtml" style="display: table-cell; white-space: nowrap; line-height: 1.5; max-width: 200px; text-align: center;"><span class="nodeLabel"><p>PROD<br />Synthetic monitoring<br />(every 5 min)</p></span></div></foreignObject></g></g></g></g></g><defs><filter id="m732aa2740d8e89da-0-drop-shadow" height="130%" width="130%"><feDropShadow dx="4" dy="4" stdDeviation="0" flood-opacity="0.06" flood-color="#000000"/></filter></defs><defs><filter id="m732aa2740d8e89da-0-drop-shadow-small" height="150%" width="150%"><feDropShadow dx="2" dy="2" stdDeviation="0" flood-opacity="0.06" flood-color="#000000"/></filter></defs><linearGradient id="m732aa2740d8e89da-0-gradient" gradientUnits="objectBoundingBox" x1="0%" y1="0%" x2="100%" y2="0%"><stop offset="0%" stop-color="hsl(0, 0%, 83.3333333333%)" stop-opacity="1"/><stop offset="100%" stop-color="hsl(0, 0%, 88.9215686275%)" stop-opacity="1"/></linearGradient></svg>